<svg width="65" height="75" viewBox="0 0 65 75" fill="none" xmlns="http://www.w3.org/2000/svg">
<path d="M36.8083 1.33626C32.7294 -0.718752 30.9301 -0.149493 27.8549 1.33626L4.64246 15.4341C1.16906 17.422 0.475985 19.2688 0 22.9988L0.331573 52.5698C0.154585 55.1665 0.785752 56.6571 4.64246 59.4471L28.1865 73.8886C31.5175 75.3286 33.3486 75.4117 36.4767 73.8886L57.3678 61.5102C62.0238 59.2019 63.9344 57.3972 64.9949 52.5698V23.3427C65.0595 20.1781 64.5383 18.5608 62.0104 16.1218L36.8083 1.33626Z" fill="url(#paint0_linear_1_434)"/>
<path d="M36.3662 4.66362C32.7037 2.7793 31.0882 3.30128 28.327 4.66362L7.4848 17.5905C4.36611 19.4132 3.74379 21.1066 3.31641 24.5268L3.61412 51.6414C3.45521 54.0222 4.02192 55.3893 7.4848 57.9474L28.6248 71.1894C31.6156 72.5094 33.2597 72.5857 36.0684 71.1894L54.8265 59.8392C59.0066 57.7224 60.7226 56.0677 61.6747 51.6414V24.8421C61.7327 21.9403 61.2647 20.4574 58.9948 18.221L36.3662 4.66362Z" fill="#2C3749"/>
<path d="M43.849 29.1579L38.8748 20.2178C32.8939 22.7143 29.7424 25.2857 25.9414 30.8771C20.9814 37.5499 18.3425 41.338 17.5303 49.2857C16.5689 52.8497 16.9394 55.0714 19.31 57.0098C18.7297 57.4015 25.0151 60.2142 28.7575 58.2857C26.0392 57.9874 24.9229 57.3355 24.2841 53.2272C25.3242 46.4271 26.721 43.4293 29.9214 38.7857C35.139 33.695 38.1868 31.5053 43.849 29.1579Z" fill="#00BDFF"/>
<path d="M25.9417 16.4353C30.5842 11.0428 33.2007 10.982 36.843 16.5165L38.8743 20.2176C31.3604 23.6952 28.3031 27.1446 23.6204 34.3155C19.0537 41.9984 18.0956 45.3642 17.3199 50.8203C16.9615 57.1589 19.82 58.4386 27.5997 58.7287C22.8885 59.8507 20.3191 59.7534 15.9929 58.385C10.3458 56.1689 9.82106 53.8627 11.3504 48.7572C13.1406 41.5578 14.463 37.8541 18.0248 31.8274L25.9417 16.4353Z" fill="#01A6FF"/>
<path d="M24.2846 52.8835C24.4881 48.8446 25.1229 46.5818 27.6006 42.568C29.98 40.9881 31.5329 40.0552 37.2161 37.7541C40.3839 36.5085 42.3122 36.1145 46.1697 36.3787C49.7337 39.6846 51.5529 41.8757 53.7964 47.7256C54.1458 49.8261 54.1923 50.7822 53.7964 52.1956C53.8231 51.3749 53.638 50.9245 53.1334 50.1325C49.6982 47.4239 47.5225 47.7938 43.5177 49.4451C37.5438 51.7203 34.2925 53.81 28.5954 58.385C24.7142 57.8035 24.1884 56.3005 24.2846 52.8835Z" fill="white"/>
<path d="M49.1547 53.5714C49.4005 51.3913 48.8695 50.2628 46.8332 48.4135C48.229 47.9978 49.1405 48.0625 51.1441 48.7573C52.7959 49.4327 53.7973 50.133 53.7973 52.1961C53.3789 53.4861 53.0583 54.1538 51.8075 54.9467C49.6341 56.3545 48.2357 56.7664 45.5068 57.0098C47.1507 56.0447 47.9946 55.3727 49.1547 53.5714Z" fill="#03BCFD"/>
<path d="M46.8332 48.4136C44.7941 48.8447 43.6407 49.2433 41.5276 50.4767C43.4788 51.0746 44.6436 51.6699 45.8385 53.5714C46.2852 54.8361 46.1958 55.5913 45.5068 57.0098L46.5015 56.6657L48.4913 54.9467C49.2886 54.0184 49.6065 53.3674 49.4859 51.5083C48.8336 49.9213 47.961 49.2909 46.8332 48.4136Z" fill="#00A4FF"/>
<defs>
<linearGradient id="paint0_linear_1_434" x1="65" y1="37.7142" x2="-0.0236521" y2="34.8163" gradientUnits="userSpaceOnUse">
<stop stop-color="#01A2FE"/>
<stop offset="0.395833" stop-color="#05ADFB"/>
<stop offset="1" stop-color="#02D6FE"/>
</linearGradient>
</defs>
</svg>
