<svg width="65" height="75" viewBox="0 0 65 75" fill="none" xmlns="http://www.w3.org/2000/svg">
<path d="M34.4167 74.5913C33.1012 75.1226 32.2955 75.144 30.989 74.608C30.8539 74.5525 30.7265 74.4786 30.6085 74.3925L1.33523 53.0507C1.24487 52.9848 1.15952 52.9117 1.08299 52.8302C0.308145 52.0046 0.00756662 51.3152 0 49.5564V20.8623C0 20.6858 0.0229092 20.5098 0.070356 20.3397C0.416421 19.0992 0.734332 18.3615 2.199 17.4007L30.7861 0.623797C32.2674 -0.160286 33.1017 -0.254253 34.5844 0.623797L63.3713 17.4007C64.7011 18.3665 64.9564 19.1042 64.9706 20.5963V51.9531C65.0764 53.101 64.8988 53.7709 64.4049 54.719C64.2564 55.0039 64.031 55.2406 63.7622 55.4166L34.7357 74.4229C34.635 74.4889 34.5284 74.5462 34.4167 74.5913Z" fill="#8BB6D9"/>
<path d="M34.417 70.0099C33.2957 70.4634 32.5993 70.4822 31.4868 70.0265C31.351 69.9708 31.2236 69.896 31.1054 69.809L5.69685 51.1144C5.60667 51.048 5.52151 50.9745 5.44553 50.8923C4.78268 50.1748 4.52509 49.5677 4.51855 48.0357V22.8905C4.51855 22.7155 4.54102 22.5408 4.58792 22.3721C4.88569 21.3015 5.16854 20.6584 6.43032 19.8231L31.2833 5.10346C32.5711 4.41552 33.2964 4.33308 34.5854 5.10346L59.6121 19.8231C60.7683 20.6705 60.9902 21.3177 61.0025 22.6268V50.1385C61.0925 51.1236 60.9468 51.7075 60.5384 52.5111C60.3929 52.7973 60.1678 53.0346 59.8999 53.2116L34.7371 69.8396C34.6362 69.9063 34.5292 69.9645 34.417 70.0099Z" fill="#273141"/>
<path d="M38.8415 37.5L32.5 48.1752L42.2764 64.8723L51.7886 58.5767L38.8415 37.5Z" fill="#2793E9"/>
<path d="M45.9756 24.6353L40.4268 34.2155L54.5 57L61 52.5L61.0366 48.1754L45.9756 24.6353Z" fill="#2793E9"/>
<path d="M18.7602 23.1898L0 50.2883L0.5 52L1 52.5L9 58.5L30.6504 21.0156H24.0967C22.0187 21.1822 20.8244 21.71 18.7602 23.1898Z" fill="white"/>
<path d="M33.5569 21.0156L11.3618 60.1423L19.8171 66.1642L44.6545 21.0156H33.5569Z" fill="white"/>
</svg>
