<svg width="65" height="75" viewBox="0 0 65 75" fill="none" xmlns="http://www.w3.org/2000/svg">
<path d="M2.8999 15.9292C1.36289 17.2353 0.793015 18.3521 0 20.649V52.5077C0.200231 55.2652 0.85461 56.6698 2.8999 58.997L29.579 74.3363C31.8742 75.1633 33.1491 75.2774 35.3788 74.3363L61.478 58.997C63.7614 57.1571 64.6839 56.0362 64.9578 53.6873V21.8289C65.2028 19.2277 64.3991 17.9745 62.0579 15.9292C59.7168 13.8839 34.2189 0 34.2189 0C34.2189 0 31.319 0.000288078 30.739 0C30.159 -0.00028807 2.8999 15.9292 2.8999 15.9292Z" fill="#FFFEFB"/>
<path d="M6.37983 19.853C5.31065 20.7231 4.98933 21.4122 4.63989 22.8029L5.21987 52.3014L30.739 69.4105C32.0081 69.8958 32.7247 70.1403 34.2189 69.4105L60.318 52.8913V22.8029C60.0777 21.2066 59.6118 20.6466 58.5781 19.853L34.2189 5.10376C32.8404 4.57847 32.0727 4.60514 30.739 5.10376L6.37983 19.853Z" fill="#03537E"/>
<path d="M38.7798 16.7164L9.31421 60.9342L17.4682 66.264L38.7798 33.8903L57.6822 60.9342L63.7977 53.8278L62.1298 51.6564L38.7798 16.7164Z" fill="white"/>
<path d="M22.3872 18.8665L1.90108 49.5591C1.45236 50.2313 1.4524 51.1076 1.90117 51.7799L5.41203 57.0389C6.20768 58.2307 7.96177 58.2236 8.74775 57.0254L27.025 29.1617C27.199 28.8964 27.3085 28.593 27.3383 28.2771C27.7313 24.1154 27.2295 21.6371 25.5491 18.8473C24.8378 17.6663 23.1526 17.7199 22.3872 18.8665Z" fill="white"/>
<path d="M52.6409 58.407L45.1011 63.1268L38.1413 52.5073C34.7631 47.1525 35.4268 44.1842 39.3013 38.938L52.6409 58.407Z" fill="white"/>
<path d="M2.8999 15.9292C1.36289 17.2353 0.793015 18.3521 0 20.649V52.5077C0.200231 55.2652 0.85461 56.6698 2.8999 58.997L29.579 74.3363C31.8742 75.1633 33.1491 75.2774 35.3788 74.3363L61.478 58.997C63.7614 57.1571 64.6838 56.0362 64.9578 53.6873V21.8289C65.2028 19.2277 64.3991 17.9745 62.0579 15.9292C59.7167 13.8839 34.2189 0 34.2189 0C34.2189 0 31.319 0.000288078 30.739 0C30.159 -0.00028807 2.8999 15.9292 2.8999 15.9292Z" fill="url(#paint0_linear_1_489)"/>
<defs>
<linearGradient id="paint0_linear_1_489" x1="18.5594" y1="37.7581" x2="65.1072" y2="22.8862" gradientUnits="userSpaceOnUse">
<stop stop-color="#1EA1CF" stop-opacity="0"/>
<stop offset="1" stop-color="#23A5D2" stop-opacity="0.74"/>
<stop offset="1" stop-color="#23A5D2"/>
</linearGradient>
</defs>
</svg>
