<svg width="65" height="75" viewBox="0 0 65 75" fill="none" xmlns="http://www.w3.org/2000/svg">
<path d="M55.7725 17.8642C66.9915 12.626 66.7412 8.41988 61.5809 0C26.9506 13.3298 -24.9255 27.1654 13.6616 58.9075C8.58786 49.3051 8.23151 44.7173 13.8691 38.5335C25.4834 28.1988 27.1429 30.4134 55.7725 17.8642Z" fill="#487C97"/>
<path d="M21.5393 58.7598C7.64299 40.1575 34.6081 33.0708 61.9906 22.4409C65.9602 30.1639 64.9413 33.6517 58.4641 38.6811C38.552 47.9823 25.6905 49.311 32.3263 61.5649C32.8852 57.22 34.8058 54.7817 41.2464 50.3445L47.2622 58.7598C47.8485 66.4178 43.2005 69.7398 31.4965 75L21.5393 58.7598Z" fill="#F0FAEF"/>
</svg>
