<svg width="65" height="50" viewBox="0 0 65 50" fill="none" xmlns="http://www.w3.org/2000/svg">
<path d="M53.892 13.0229H44.426V23.9542H53.892V13.0229Z" fill="white"/>
<path d="M42.7857 13.0229H33.3197V23.9542H42.7857V13.0229Z" fill="white"/>
<path d="M31.6791 13.0229H22.2137V23.9542H31.6791V13.0229Z" fill="white"/>
<path d="M20.5726 13.0229H11.1066V23.9542H20.5726V13.0229Z" fill="white"/>
<path d="M53.892 0H44.426V10.9315H53.892V0Z" fill="white"/>
<path d="M33.3195 10.9312V10.9315H42.7855V0H42.7852L33.3195 10.9312Z" fill="white"/>
<path d="M20.5726 0H11.1066V10.9315H20.5726V0Z" fill="white"/>
<path d="M53.892 26.046H44.426V36.9776H53.892V26.046Z" fill="white"/>
<path d="M42.7857 26.046H33.3197V36.9776H42.7857V26.046Z" fill="white"/>
<path d="M42.7857 26.046H38.0527V36.9776H42.7857V26.046Z" fill="black"/>
<path d="M31.6791 26.046H22.2137V36.9776H31.6791V26.046Z" fill="white"/>
<path d="M20.5726 26.046H11.1066V36.9776H20.5726V26.046Z" fill="white"/>
<path d="M53.892 39.0685H44.426V50H53.892V39.0685Z" fill="white"/>
<path d="M64.9986 39.0685H55.5326V50H64.9986V39.0685Z" fill="white"/>
<path d="M42.7857 39.0685H33.3197V50H42.7857V39.0685Z" fill="white"/>
<path d="M31.6791 39.0685H22.2137V50H31.6791V39.0685Z" fill="white"/>
<path d="M20.5726 39.0685H11.1066V50H20.5726V39.0685Z" fill="white"/>
<path d="M9.4663 39.0685H0V50H9.4663V39.0685Z" fill="white"/>
<path d="M22.2134 0H22.2131V10.9315H31.6792V10.9312L22.2134 0Z" fill="white"/>
<path d="M31.6792 26.046H26.9462V36.9776H31.6792V26.046Z" fill="black"/>
</svg>
