<svg width="65" height="65" viewBox="0 0 65 65" fill="none" xmlns="http://www.w3.org/2000/svg">
<path d="M4.92744 35.0645H0C0.733871 45.113 6.1855 53.905 14.0484 59.3479L16.5646 55.0567C10.0645 50.5559 5.66129 43.3336 4.92744 35.0645ZM59.9677 35.0645C59.234 43.3336 54.8309 50.5559 48.4357 55.0567L50.9518 59.3479C58.8146 53.905 64.1613 45.113 65 35.0645H59.9677ZM50.9518 5.75686L48.4357 9.94368C54.8309 14.4445 59.234 21.6667 59.9677 29.9357H65C64.1613 19.8873 58.8146 11.095 50.9518 5.75686ZM14.0484 5.75686C6.08064 11.095 0.733871 19.8873 0 29.9357H4.92744C5.66129 21.6667 10.0645 14.4445 16.4597 9.94368L14.0484 5.75686ZM32.5001 0C27.4678 0 22.7501 1.15137 18.4517 3.1401L20.9678 7.43158C24.5323 5.75686 28.4113 4.91951 32.5001 4.91951C36.5888 4.91951 40.5725 5.86152 44.0323 7.43158L46.5484 3.1401C42.2499 1.15137 37.4275 0 32.5001 0ZM44.0323 57.5685C40.4679 59.2435 36.5888 60.0807 32.5001 60.0807C28.4113 60.0807 24.4275 59.1387 20.9678 57.5685L18.4517 61.8601C22.7501 63.9535 27.4678 65 32.5001 65C37.5324 65 42.2499 63.8487 46.5484 61.8601L44.0323 57.5685ZM10.0645 29.9357H14.992C16.1452 22.2948 22.2258 16.2239 29.8791 15.1772V10.2577C19.5 11.3044 11.2178 19.5733 10.0645 29.9357ZM49.9032 35.0645C48.7501 42.7056 42.6693 48.7761 35.0162 49.9278V54.8471C45.3953 53.6958 53.6774 45.427 54.8309 35.0645H49.9032ZM35.0162 10.153V15.1772C42.6693 16.3285 48.7501 22.3994 49.9032 30.0403H54.8309C53.6774 19.5733 45.3953 11.3044 35.0162 10.153ZM14.992 35.0645H10.0645C11.2178 45.427 19.5 53.6958 29.8791 54.8471V49.9278C22.2258 48.7761 16.1452 42.7056 14.992 35.0645ZM39.6292 35.0645C38.5806 37.9952 35.7501 40.0885 32.5001 40.0885C29.2501 40.0885 26.4194 37.9952 25.371 35.0645H20.2339C21.3871 40.7166 26.4194 45.0082 32.5001 45.0082C38.5806 45.0082 43.6129 40.7166 44.766 35.0645H39.6292ZM32.5001 19.992C26.5242 19.992 21.3871 24.2835 20.2339 29.9357H25.371C26.4194 27.0049 29.2501 24.9115 32.5001 24.9115C35.7501 24.9115 38.5806 27.0049 39.6292 29.9357H44.766C43.508 24.2835 38.4757 19.992 32.5001 19.992Z" fill="white"/>
</svg>
