<svg width="20" height="19" viewBox="0 0 20 19" fill="none" xmlns="http://www.w3.org/2000/svg">
<g clip-path="url(#clip0_1_825)">
<path d="M7.29182 15.9815C14.3951 15.9815 18.2802 10.2565 18.2802 5.2917C18.2802 5.12909 18.2802 4.96721 18.2689 4.80606C19.0248 4.27422 19.6772 3.61569 20.1957 2.86132C19.4909 3.1653 18.7432 3.36456 17.9776 3.45244C18.7838 2.98295 19.3872 2.24444 19.6754 1.37439C18.9174 1.81205 18.088 2.12047 17.2231 2.28633C16.6408 1.684 15.8707 1.28515 15.032 1.1515C14.1932 1.01786 13.3325 1.15687 12.5831 1.54702C11.8338 1.93717 11.2375 2.55671 10.8865 3.30978C10.5355 4.06284 10.4495 4.90744 10.6417 5.71287C9.10623 5.63794 7.60416 5.24975 6.23294 4.5735C4.86172 3.89725 3.65201 2.94805 2.68231 1.78751C2.18845 2.6146 2.03719 3.5937 2.25933 4.52548C2.48147 5.45725 3.0603 6.27163 3.87798 6.8028C3.26335 6.78528 2.66211 6.62398 2.12513 6.33255V6.38016C2.12538 7.24758 2.43404 8.08821 2.99876 8.75948C3.56348 9.43075 4.34949 9.89132 5.22349 10.0631C4.65492 10.214 4.05837 10.236 3.47967 10.1275C3.72656 10.874 4.20704 11.5268 4.85395 11.9946C5.50086 12.4623 6.28186 12.7218 7.08777 12.7366C6.28705 13.3489 5.37009 13.8016 4.38935 14.0688C3.40861 14.336 2.38334 14.4125 1.37219 14.2939C3.13834 15.3964 5.19331 15.9813 7.29182 15.9786" fill="#BFA677"/>
</g>
<defs>
<clipPath id="clip0_1_825">
<rect x="0.587891" y="0.148682" width="18.8235" height="18.312" rx="6" fill="white"/>
</clipPath>
</defs>
</svg>
