<svg width="265" height="207" viewBox="0 0 265 207" fill="none" xmlns="http://www.w3.org/2000/svg">
<path d="M215.907 114.548C190.116 130.725 154.643 125.092 136.647 102.123C118.65 79.1532 124.826 47.395 150.617 31.2176C176.407 15.0403 211.88 20.6736 229.877 43.6429C247.874 66.6123 241.698 98.3705 215.907 114.548Z" fill="#002440" stroke="url(#paint0_linear_1_558)" stroke-width="3"/>
<path d="M182.602 121.029C182.602 167.052 142.175 204.559 92.051 204.559C41.9268 204.559 1.50003 167.052 1.50003 121.029C1.50003 75.0073 41.9268 37.5001 92.051 37.5001C142.175 37.5001 182.602 75.0073 182.602 121.029Z" fill="#002948" stroke="url(#paint1_linear_1_558)" stroke-width="3"/>
<path d="M47.8081 125.564H40C41.1629 141.487 49.8017 155.419 62.2614 164.044L66.2485 157.244C55.9484 150.112 48.971 138.667 47.8081 125.564ZM135.026 125.564C133.863 138.667 126.886 150.112 116.752 157.244L120.739 164.044C133.199 155.419 141.671 141.487 143 125.564H135.026ZM120.739 79.1224L116.752 85.7569C126.886 92.889 133.863 104.333 135.026 117.437H143C141.671 101.514 133.199 87.5814 120.739 79.1224ZM62.2614 79.1224C49.6355 87.5814 41.1629 101.514 40 117.437H47.8081C48.971 104.333 55.9484 92.889 66.0823 85.7569L62.2614 79.1224ZM91.5001 70C83.5259 70 76.0501 71.8245 69.2388 74.9759L73.2259 81.7762C78.8743 79.1224 85.0211 77.7955 91.5001 77.7955C97.9792 77.7955 104.292 79.2882 109.774 81.7762L113.761 74.9759C106.95 71.8245 99.3082 70 91.5001 70ZM109.774 161.224C104.126 163.878 97.9792 165.205 91.5001 165.205C85.0211 165.205 78.7082 163.712 73.2259 161.224L69.2388 168.024C76.0501 171.342 83.5259 173 91.5001 173C99.4745 173 106.95 171.176 113.761 168.024L109.774 161.224ZM55.9484 117.437H63.7565C65.584 105.329 75.2194 95.7086 87.3469 94.05V86.2545C70.9001 87.9131 57.7759 101.016 55.9484 117.437ZM119.077 125.564C117.25 137.672 107.614 147.291 95.4872 149.116V156.912C111.934 155.087 125.058 141.984 126.886 125.564H119.077ZM95.4872 86.0886V94.05C107.614 95.8745 117.25 105.494 119.077 117.602H126.886C125.058 101.016 111.934 87.9131 95.4872 86.0886ZM63.7565 125.564H55.9484C57.7759 141.984 70.9001 155.087 87.3469 156.912V149.116C75.2194 147.291 65.584 137.672 63.7565 125.564ZM102.797 125.564C101.136 130.208 96.6501 133.525 91.5001 133.525C86.3501 133.525 81.8646 130.208 80.2033 125.564H72.063C73.8904 134.52 81.8646 141.321 91.5001 141.321C101.136 141.321 109.11 134.52 110.937 125.564H102.797ZM91.5001 101.68C82.0308 101.68 73.8904 108.48 72.063 117.437H80.2033C81.8646 112.792 86.3501 109.475 91.5001 109.475C96.6501 109.475 101.136 112.792 102.797 117.437H110.937C108.943 108.48 100.969 101.68 91.5001 101.68Z" fill="white"/>
<defs>
<linearGradient id="paint0_linear_1_558" x1="115.366" y1="77.3823" x2="161.277" y2="150.576" gradientUnits="userSpaceOnUse">
<stop stop-color="#816746"/>
<stop offset="0.41039" stop-color="#BDA180"/>
<stop offset="1" stop-color="#7F6544"/>
</linearGradient>
<linearGradient id="paint1_linear_1_558" x1="37.185" y1="206.06" x2="184.102" y2="206.06" gradientUnits="userSpaceOnUse">
<stop stop-color="#816746"/>
<stop offset="0.41039" stop-color="#BDA180"/>
<stop offset="1" stop-color="#7F6544"/>
</linearGradient>
</defs>
</svg>
